# xmcd CD database file generated by MAGIX-FreeDB- v3.0beta1
#
# Track frame offsets:
#	225
#	21916
#	40523
#	61032
#	74190
#	89773
#	112378
#	130646
#	156153
#	183401
#	195955
#	212003
#	238199
#	253442
#	275124
#	293188
#
# Disc length: 4166
#
# Revision: 2
# Processed by: cddbd v1.5.2PL0 Copyright (c) Steve Scherf et al.
# Submitted via: MAGIX-FreeDB- v3.0beta1
#
DISCID=fd104310
DTITLE=Vangelis - Conquest Of Paradise (played by Allegro Milano)
DYEAR=1969
DGENRE=Other
TTITLE0=Conquest Of Paradise
TTITLE1=Pulstar
TTITLE2=Eric's Theme
TTITLE3=Italian Song
TTITLE4=Rotations Logic
TTITLE5=The Will Of The Wind
TTITLE6=Hymne
TTITLE7=Elsewhere
TTITLE8=Apocalypse Des Animaux
TTITLE9=The Tao Of Love
TTITLE10=The Unknown Man
TTITLE11=L' Opera Sauvage
TTITLE12=Chariots Of Fire
TTITLE13=I Hear You Now
TTITLE14=Theme From Antarctica
TTITLE15=I'll Find My Way Home
EXTD=
EXTT0=
EXTT1=Heinz
EXTT2=Heinz
EXTT3=Heinz
EXTT4=Heinz
EXTT5=Heinz
EXTT6=Heinz
EXTT7=Heinz
EXTT8=Heinz
EXTT9=Heinz
EXTT10=Heinz
EXTT11=Heinz
EXTT12=Heinz
EXTT13=Heinz
EXTT14=Heinz
EXTT15=Heinz
PLAYORDER=
